<svg width="204" height="45" viewBox="0 0 204 45" fill="none" xmlns="http://www.w3.org/2000/svg">
<path fill-rule="evenodd" clip-rule="evenodd" d="M22.3487 14.3676C27.3721 11.1966 30.1428 7.09998 34.8064 6.17505L37.0387 6.9028V10.8164C30.9792 9.99152 28.0128 12.5743 23.7854 15.2325C23.2944 14.9416 22.8174 14.6519 22.3487 14.3676Z" fill="white"/>
<path fill-rule="evenodd" clip-rule="evenodd" d="M21.4191 16.4794C24.1791 16.4794 26.43 14.1962 26.43 11.3964C26.43 8.59647 24.1791 6.31299 21.4191 6.31299C18.6589 6.31299 16.4078 8.59647 16.4078 11.3964C16.4078 14.1962 18.6589 16.4794 21.4191 16.4794Z" fill="#F8E20C"/>
<path fill-rule="evenodd" clip-rule="evenodd" d="M17.0913 23.6707H16.5597L5.2296 32.7238L8.00022 34.8157L17.0913 23.6707Z" fill="white"/>
<path fill-rule="evenodd" clip-rule="evenodd" d="M1.34467 29.7903L15.1156 23.6707H15.7439L2.91665 30.9772L1.34467 29.7903Z" fill="white"/>
<path fill-rule="evenodd" clip-rule="evenodd" d="M0.961136 26.8976L12.554 23.6707H13.569L0.961136 28.0181V26.8976Z" fill="white"/>
<path fill-rule="evenodd" clip-rule="evenodd" d="M0.961136 24.521L8.10764 23.6707H9.8473L0.961136 25.3961V24.521Z" fill="white"/>
<path fill-rule="evenodd" clip-rule="evenodd" d="M21.2528 41.4204L19.4341 23.6707H20.1835L26.3405 37.5788L23.2334 39.925L21.2528 41.4204Z" fill="white"/>
<path fill-rule="evenodd" clip-rule="evenodd" d="M20.5944 23.6707H21.126L32.6088 32.8458L29.8054 34.9627L20.5944 23.6707Z" fill="white"/>
<path fill-rule="evenodd" clip-rule="evenodd" d="M36.5388 29.8783L22.5701 23.6707H21.9419L34.9482 31.0793L36.5388 29.8783Z" fill="white"/>
<path fill-rule="evenodd" clip-rule="evenodd" d="M37.0388 26.985L25.1318 23.6707H24.1168L37.0388 28.1264V26.985Z" fill="white"/>
<path fill-rule="evenodd" clip-rule="evenodd" d="M37.0388 24.5583L29.5781 23.6707H27.8385L37.0388 25.4569V24.5583Z" fill="white"/>
<path fill-rule="evenodd" clip-rule="evenodd" d="M16.4554 41.2003L18.2516 23.6707H17.5022L11.424 37.401L16.4554 41.2003Z" fill="white"/>
<path fill-rule="evenodd" clip-rule="evenodd" d="M24.2239 15.49C28.396 13.2723 31.3048 11.0804 37.0387 11.5795V19.4427C31.1506 19.0996 27.3713 17.3188 24.2239 15.49Z" fill="#EAEAEA"/>
<path fill-rule="evenodd" clip-rule="evenodd" d="M37.0387 19.4425C19.3254 18.4106 20.6913 4.36557 0.961136 15.1528V22.1937H37.0387V19.4425Z" fill="white"/>
<path fill-rule="evenodd" clip-rule="evenodd" d="M11.2904 21.1528L11.6647 21.1521V8.91724C7.08175 11.6605 8.03497 15.7204 11.2904 18.1648V21.1528Z" fill="#FEFEFE"/>
<path fill-rule="evenodd" clip-rule="evenodd" d="M11.6647 18.1965V8.91724C16.2477 11.6605 15.2941 15.7204 12.0392 18.1648L11.6647 18.1965Z" fill="#EAEAEA"/>
<path fill-rule="evenodd" clip-rule="evenodd" d="M6.42483 21.1528L6.62441 21.1526V14.6294C4.18076 16.0921 4.6892 18.2566 6.42483 19.5599V21.1528Z" fill="#FEFEFE"/>
<path fill-rule="evenodd" clip-rule="evenodd" d="M6.62442 19.5766V14.6294C9.06777 16.0921 8.55963 18.2566 6.82409 19.5599L6.62442 19.5766Z" fill="#EAEAEA"/>
<path fill-rule="evenodd" clip-rule="evenodd" d="M0 29.5008V6.19495C6.33332 4.13037 12.6672 2.0664 18.9999 0C25.3327 2.0664 31.6666 4.13037 38 6.19495V29.9864C31.6676 34.7699 25.3337 39.5516 18.9999 44.3333C12.6661 39.5516 6.33231 34.7699 0 29.9864V29.5008ZM1.92227 7.61044V29.0147L18.9999 41.9099L36.0777 29.0147V7.61044L18.9999 2.04184L1.92227 7.61044Z" fill="white"/>
<path fill-rule="evenodd" clip-rule="evenodd" d="M66.9483 12.241V17.0227H64.8811C64.5521 16.0685 64.2692 15.4271 64.0382 15.0887C63.8062 14.7552 63.5285 14.4886 63.21 14.2932C62.8861 14.0982 62.3409 14.0009 61.5698 14.0009H58.2837V21.2147H60.2736C60.716 21.2147 61.0603 21.153 61.3127 21.0248C61.5648 20.9014 61.7701 20.6914 61.9347 20.4042C62.1044 20.1113 62.2585 19.66 62.4132 19.0497H64.1151V25.1548H62.4132C62.269 24.5703 62.1149 24.1287 61.9448 23.8209C61.7757 23.5185 61.5698 23.2976 61.3328 23.1694C61.0969 23.0359 60.742 22.9745 60.2736 22.9745H58.2837V30.9991H61.5543C61.9041 30.9991 62.2024 30.9785 62.4439 30.9323C62.6802 30.8861 62.8965 30.8092 63.0918 30.7013C63.2822 30.5883 63.4619 30.4397 63.6371 30.2499C63.8168 30.0599 63.9714 29.8545 64.105 29.6341C64.244 29.4137 64.3825 29.1214 64.5368 28.7617C64.6858 28.3976 64.8505 27.905 65.0306 27.2741H67.0973L66.8097 32.7589H52V31.7686C52.3752 31.6661 52.6682 31.5581 52.8841 31.4452C53.1005 31.3274 53.2595 31.1684 53.3626 30.963C53.4704 30.7576 53.5377 30.4964 53.5684 30.1831C53.5994 29.865 53.6146 29.4648 53.6146 28.9877V16.0273C53.6146 15.5553 53.5994 15.1603 53.5733 14.842C53.5529 14.5192 53.486 14.2625 53.3782 14.0571C53.2752 13.8571 53.1156 13.6979 52.8997 13.5697C52.6839 13.4468 52.3856 13.3338 52 13.2314V12.241H66.9483ZM76.8409 12.241V13.2314C76.3681 13.2822 76.0336 13.39 75.8385 13.5544C75.6431 13.7236 75.5453 13.9753 75.5453 14.3138C75.5453 14.483 75.576 14.6782 75.6482 14.8937C75.72 15.1092 75.833 15.3654 75.9926 15.6681C76.1572 15.971 76.4244 16.4381 76.8103 17.0795L78.2089 19.4083L80.0342 16.7353C80.4353 16.1454 80.7029 15.6888 80.8364 15.3758C80.9756 15.0576 81.0423 14.719 81.0423 14.3598C81.0423 14.0421 80.9292 13.7805 80.708 13.5851C80.492 13.3901 80.1833 13.2721 79.7928 13.2314V12.241H86.0151V13.2466C85.7219 13.3288 85.4442 13.4569 85.1868 13.6311C84.9249 13.806 84.6214 14.0981 84.2822 14.5035C83.9374 14.9088 83.3921 15.6475 82.6366 16.7199L79.3866 21.3478L84.2977 29.4392C84.467 29.706 84.6421 29.9731 84.8168 30.2394C84.9917 30.5064 85.1613 30.7426 85.326 30.9475C85.4956 31.1529 85.6396 31.307 85.7632 31.4043C85.8915 31.5069 86.0151 31.5836 86.1331 31.6404C86.2565 31.6917 86.3801 31.7379 86.5086 31.7686V32.7589H78.1371V31.7686C78.5738 31.7172 78.9032 31.6093 79.1141 31.4506C79.3249 31.2913 79.4278 31.035 79.4278 30.6859C79.4278 30.5626 79.4122 30.4346 79.376 30.2909C79.3404 30.1525 79.2838 29.9832 79.1964 29.7827C79.1089 29.5828 79.0268 29.4031 78.9393 29.2493C78.857 29.0952 78.6823 28.7978 78.4197 28.3565L76.327 24.9137L73.869 28.5361C73.6784 28.8235 73.5192 29.0901 73.3907 29.3312C73.257 29.5727 73.1698 29.7933 73.1181 29.9933C73.0668 30.1936 73.0409 30.429 73.0409 30.7013C73.0409 30.9681 73.1488 31.204 73.3651 31.4043C73.5809 31.6043 73.8891 31.7273 74.2903 31.7686V32.7589H68.0578V31.7686C68.3873 31.6661 68.6904 31.512 68.9686 31.3069C69.241 31.1015 69.5442 30.8041 69.8732 30.4141C70.1974 30.0239 70.6447 29.4186 71.2206 28.5924L75.1491 22.9745L71.3542 16.674C70.9429 15.9917 70.588 15.4271 70.2949 14.9757C69.9966 14.5241 69.7502 14.1805 69.5494 13.9446C69.3491 13.7136 69.1689 13.5444 69.0148 13.4417C68.8551 13.3439 68.6754 13.2721 68.464 13.2314V12.241H76.8409ZM93.9173 28.9877C93.9173 29.3368 93.9279 29.6596 93.9485 29.9625C93.9691 30.2653 94.0047 30.5116 94.0666 30.7013C94.1282 30.8912 94.2156 31.0502 94.329 31.1784C94.4474 31.3119 94.6066 31.4249 94.8069 31.517C95.0077 31.6148 95.2547 31.6966 95.5425 31.7686V32.7589H87.6338V31.7686C88.0091 31.6661 88.302 31.5581 88.5183 31.4452C88.7341 31.3274 88.8937 31.1684 88.9963 30.963C89.1042 30.7576 89.1713 30.4964 89.202 30.1831C89.2332 29.865 89.2482 29.4648 89.2482 28.9877V16.0122C89.2482 15.5351 89.2332 15.1348 89.2072 14.8271C89.1865 14.5136 89.1197 14.2574 89.0118 14.0521C88.9088 13.847 88.7498 13.6824 88.5333 13.5648C88.3175 13.4417 88.0192 13.3338 87.6338 13.2314V12.241H95.5425V13.2314C95.1313 13.3439 94.8279 13.462 94.6322 13.5851C94.437 13.7137 94.2879 13.8621 94.19 14.047C94.0871 14.2264 94.0153 14.4624 93.9792 14.7497C93.9379 15.0425 93.9173 15.4678 93.9173 16.0273V28.9877ZM120.986 13.2314C120.45 13.3851 120.091 13.5443 119.9 13.7236C119.71 13.8979 119.576 14.1339 119.499 14.4267C119.427 14.7241 119.386 15.2475 119.386 15.9966V29.0029C119.386 29.6135 119.417 30.096 119.479 30.4497C119.541 30.8092 119.664 31.0758 119.849 31.2605C120.034 31.4507 120.414 31.6148 120.986 31.7686V32.7589H113.256V31.7686C113.699 31.6455 114.007 31.5429 114.177 31.4506C114.347 31.3632 114.481 31.2452 114.573 31.0964C114.67 30.9524 114.743 30.732 114.784 30.4346C114.83 30.1419 114.856 29.6547 114.856 28.9722V21.6045C114.856 20.7938 114.871 19.8341 114.897 18.7362C114.928 17.6335 114.959 16.8483 114.989 16.3915H114.67C114.552 16.7918 114.424 17.1818 114.29 17.5716C114.151 17.9564 113.899 18.6444 113.529 19.6344L109.492 30.4909H106.839L102.592 18.3004C102.339 17.6078 102.118 16.9202 101.928 16.2378H101.656C101.758 17.8901 101.81 19.8447 101.81 22.1022V29.0184C101.81 29.7572 101.841 30.2753 101.913 30.5625C101.985 30.8549 102.123 31.0964 102.334 31.2863C102.545 31.4757 102.91 31.6354 103.435 31.7686V32.7589H97.7373V31.7686C98.1123 31.6661 98.4055 31.558 98.6218 31.435C98.8376 31.317 99.0019 31.1529 99.1104 30.9524C99.2232 30.7527 99.29 30.5013 99.3156 30.1886C99.3417 29.8751 99.3517 29.4805 99.3517 29.0029V15.9966C99.3517 15.2374 99.3212 14.714 99.2539 14.4367C99.1872 14.1544 99.0585 13.9239 98.8683 13.7441C98.6781 13.5648 98.3031 13.3952 97.7373 13.2314V12.241H105.229L109.4 24.5802L113.92 12.241H120.986V13.2314ZM140.756 26.4018H134.323L133.83 27.8281C133.686 28.2283 133.573 28.6185 133.48 28.9926C133.392 29.3673 133.346 29.7675 133.346 30.1886C133.346 31.1683 133.866 31.6966 134.914 31.7686V32.7589H128.482V31.7686C128.852 31.7273 129.176 31.5942 129.459 31.3733C129.741 31.1529 129.993 30.8549 130.225 30.4758C130.456 30.0905 130.703 29.5471 130.965 28.8339L137.249 12.1331H141.27L146.243 28.9722C146.464 29.7215 146.649 30.2548 146.798 30.5731C146.947 30.8861 147.143 31.1426 147.385 31.3375C147.626 31.5325 147.966 31.6761 148.398 31.7686V32.7589H140.077V31.7686C140.602 31.7068 140.988 31.5632 141.24 31.3326C141.492 31.1016 141.615 30.7733 141.615 30.3523C141.615 30.0444 141.579 29.696 141.512 29.3162C141.44 28.9366 141.327 28.454 141.162 27.8742L140.756 26.4018ZM134.899 24.6418H140.319L137.912 16.1813L134.899 24.6418ZM163.746 12.795C161.911 12.2668 159.895 12 157.694 12C156.387 12 155.164 12.1999 154.023 12.5951C152.886 12.9898 151.862 13.6211 150.952 14.4886C150.042 15.3553 149.332 16.4789 148.818 17.864C148.309 19.2446 148.052 20.8501 148.052 22.6716C148.052 26.1401 148.772 28.726 150.212 30.4346C151.651 32.1431 153.842 33 156.773 33C158.321 33 159.689 32.6353 160.887 31.9017L161.911 32.9845L164.081 32.533V26.8688C164.081 26.2937 164.111 25.8529 164.178 25.5345C164.245 25.2215 164.368 24.9653 164.549 24.7756C164.729 24.5857 165.068 24.4159 165.572 24.2673V23.272H157.858V24.2673C158.29 24.3953 158.594 24.5135 158.764 24.611C158.933 24.7138 159.072 24.8419 159.175 25.001C159.283 25.1653 159.36 25.4063 159.411 25.7297C159.463 26.0578 159.483 26.6018 159.483 27.3615V27.9356C159.483 29.0852 159.272 29.9264 158.851 30.4497C158.429 30.9785 157.776 31.2401 156.897 31.2401C156.002 31.2401 155.251 30.8861 154.639 30.1729C154.033 29.4599 153.58 28.4644 153.287 27.1766C152.988 25.8885 152.839 24.3648 152.839 22.61C152.839 20.5784 153.061 18.8956 153.503 17.5716C153.945 16.2427 154.547 15.273 155.313 14.6677C156.074 14.0626 156.953 13.7599 157.951 13.7599C158.681 13.7599 159.283 13.8727 159.751 14.0982C160.219 14.3239 160.599 14.6628 160.892 15.1193C161.191 15.576 161.453 16.2221 161.684 17.0638H163.746V12.795ZM174.544 32.7589H166.635V31.7686C167.011 31.6661 167.303 31.5581 167.519 31.4452C167.735 31.3274 167.895 31.1684 167.998 30.963C168.106 30.7576 168.173 30.4964 168.203 30.1831C168.234 29.865 168.25 29.4648 168.25 28.9877V16.0273C168.25 15.5553 168.234 15.1603 168.208 14.842C168.188 14.5192 168.121 14.2625 168.013 14.0571C167.91 13.8571 167.751 13.6979 167.535 13.5697C167.319 13.4468 167.021 13.3338 166.635 13.2314V12.241H175.418C176.606 12.241 177.614 12.3228 178.442 12.4871C179.269 12.6564 179.995 12.908 180.617 13.2466C181.141 13.5289 181.584 13.8827 181.943 14.3087C182.304 14.7346 182.581 15.2323 182.777 15.7963C182.977 16.3609 183.075 17.0228 183.075 17.7719C183.075 18.7517 182.9 19.5986 182.556 20.2961C182.206 20.9994 181.738 21.5839 181.152 22.0508C180.565 22.5126 179.778 22.9539 178.796 23.3642V23.5135C179.537 23.8364 180.154 24.2623 180.637 24.8012C181.126 25.3345 181.568 26.0171 181.959 26.8377L182.905 28.8797C183.327 29.7932 183.748 30.4758 184.165 30.9323C184.581 31.3888 185.075 31.6661 185.651 31.7686V32.7589H179.851C179.264 31.9583 178.606 30.7632 177.876 29.1827L176.698 26.6122C176.349 25.8478 176.045 25.309 175.799 24.986C175.547 24.6675 175.284 24.447 175.022 24.3236C174.755 24.2056 174.343 24.1443 173.793 24.1443H172.919V28.9877C172.919 29.7367 172.955 30.2653 173.022 30.5625C173.094 30.8654 173.233 31.1065 173.433 31.2863C173.634 31.4657 174.004 31.6248 174.544 31.7686V32.7589ZM172.919 14.0315V22.3844H174.41C175.212 22.3844 175.875 22.2768 176.4 22.0665C176.92 21.851 177.336 21.5481 177.64 21.163C177.948 20.7783 178.159 20.3218 178.272 19.8035C178.39 19.2801 178.447 18.7108 178.447 18.09C178.447 16.7249 178.128 15.7042 177.485 15.0219C176.842 14.3394 175.886 14.0009 174.621 14.0009C173.757 14.0009 173.191 14.0109 172.919 14.0315ZM193.816 33C195.235 33 196.515 32.7945 197.667 32.3842C198.814 31.9739 199.801 31.3325 200.625 30.4603C201.447 29.5879 202.085 28.4746 202.532 27.115C202.979 25.7554 203.2 24.1287 203.2 22.2354C203.2 18.8492 202.45 16.294 200.943 14.5804C199.436 12.8616 197.179 12 194.176 12C192.248 12 190.587 12.4153 189.193 13.2466C187.794 14.0777 186.74 15.2936 186.02 16.8947C185.3 18.4901 184.945 20.4193 184.945 22.6716C184.945 26.1094 185.686 28.6899 187.167 30.4141C188.648 32.1381 190.864 33 193.816 33ZM189.733 22.2665C189.733 19.3726 190.087 17.2279 190.797 15.843C191.502 14.4522 192.587 13.7599 194.042 13.7599C195.035 13.7599 195.852 14.1033 196.49 14.7909C197.128 15.4733 197.606 16.4943 197.919 17.8384C198.238 19.1879 198.398 20.8607 198.398 22.851C198.398 24.0776 198.325 25.1958 198.177 26.2223C198.033 27.243 197.791 28.1258 197.456 28.8746C197.117 29.6185 196.68 30.1986 196.135 30.6194C195.595 31.0349 194.937 31.2401 194.166 31.2401C192.669 31.2401 191.553 30.5014 190.828 29.0238C190.098 27.5458 189.733 25.2938 189.733 22.2665Z" fill="white"/>
</svg>
