<svg width="38" height="21" viewBox="0 0 38 21" fill="none" xmlns="http://www.w3.org/2000/svg">
<path d="M1.155 11.1784C0.842548 10.8658 0.667023 10.442 0.667023 10C0.667023 9.55809 0.842548 9.13424 1.155 8.8217L9.48833 0.488362C9.80267 0.184765 10.2237 0.0167735 10.6607 0.0205708C11.0977 0.0243682 11.5157 0.19965 11.8247 0.508664C12.1337 0.817677 12.309 1.2357 12.3128 1.67269C12.3166 2.10969 12.1486 2.53069 11.845 2.84503L6.35667 8.33336H35.6667C36.1087 8.33336 36.5326 8.50896 36.8452 8.82152C37.1577 9.13408 37.3333 9.558 37.3333 10C37.3333 10.4421 37.1577 10.866 36.8452 11.1785C36.5326 11.4911 36.1087 11.6667 35.6667 11.6667H6.35667L11.845 17.155C12.0042 17.3088 12.1312 17.4927 12.2185 17.696C12.3059 17.8994 12.3518 18.1181 12.3538 18.3394C12.3557 18.5607 12.3135 18.7801 12.2297 18.985C12.1459 19.1898 12.0221 19.3759 11.8657 19.5324C11.7092 19.6888 11.5231 19.8126 11.3183 19.8964C11.1134 19.9802 10.894 20.0224 10.6727 20.0204C10.4514 20.0185 10.2327 19.9725 10.0293 19.8852C9.82599 19.7978 9.64208 19.6709 9.48833 19.5117L1.155 11.1784Z" fill="white"/>
</svg>
