<svg width="24" height="24" viewBox="0 0 24 24" fill="none" xmlns="http://www.w3.org/2000/svg">
<g clip-path="url(#clip0_6434_113689)">
<path d="M9.4926 0.878969L9.49761 0.878934L10.218 0.875977H10.2198H13.7802H13.782L14.5054 0.878957L15.4119 0.888862L15.4164 0.888924L15.8404 0.89579L16.2503 0.906577L16.6439 0.920234L16.6496 0.920449L17.0254 0.935966L17.3872 0.956275L17.7338 0.980346L18.066 1.00923L18.3878 1.04112C20.0383 1.22768 20.9979 1.60927 21.6943 2.3057C22.3909 3.00235 22.7725 3.96126 22.959 5.61344L22.9917 5.93395L23.0195 6.26579L23.0436 6.61272L23.063 6.97399L23.0875 7.55131L23.0993 7.9516L23.1121 8.58715L23.121 9.49255L23.121 9.49758L23.125 10.4687V10.4705L23.124 13.7784L23.124 13.7817L23.1211 14.5024L23.121 14.5084L23.1111 15.4118L23.1111 15.4164L23.1042 15.8404L23.0934 16.2503L23.0797 16.6439L23.0795 16.6496L23.064 17.0253L23.0437 17.3872L23.0196 17.7338L22.9908 18.0659L22.9589 18.3878C22.7723 20.0383 22.3907 20.9978 21.6943 21.6943C20.9976 22.3909 20.0387 22.7725 18.3865 22.959L18.066 22.9917L17.7342 23.0195L17.3872 23.0436L17.026 23.063L16.4487 23.0875L16.0484 23.0992L15.4128 23.1121L14.5074 23.121L14.5024 23.121L13.5313 23.125H13.5294L10.2216 23.124L10.2183 23.124L9.49757 23.121L9.4916 23.121L8.58814 23.1111L8.58357 23.111L8.15955 23.1042L7.74965 23.0934L7.35605 23.0797L7.35038 23.0795L6.97467 23.064L6.61279 23.0437L6.26617 23.0196L5.9341 22.9907L5.6122 22.9588C3.96166 22.7723 3.00214 22.3907 2.30572 21.6943C1.60906 20.9976 1.22749 20.0387 1.04101 18.3865L1.00828 18.066L0.980464 17.7341L0.956376 17.3872L0.937004 17.026L0.912456 16.4486L0.900742 16.0484L0.887913 15.4128L0.878993 14.5074L0.878958 14.5024L0.875 13.5312L0.875001 13.5293L0.875993 10.2216L0.876 10.2182L0.87898 9.49456L0.888886 8.58812L0.888948 8.58355L0.895814 8.15956L0.9066 7.74968L0.920374 7.35319L0.935989 6.97453L0.956299 6.61282L0.98037 6.26619L1.00925 5.93402L1.04115 5.61218C1.2277 3.96164 1.6093 3.00212 2.30572 2.3057C3.00238 1.60904 3.96128 1.22747 5.61345 1.04098L5.93399 1.00826L6.26585 0.980441L6.61274 0.956352L6.97401 0.936981L7.55138 0.912433L7.95163 0.900718L8.58713 0.88789L9.4926 0.878969Z" stroke="white" stroke-width="1.75"/>
<path d="M4.0498 7.2998H6.7898C6.8798 11.8798 8.8998 13.8198 10.4998 14.2198V7.2998H13.0798V11.2498C14.6598 11.0798 16.3198 9.2798 16.8798 7.2998H19.4598C19.0298 9.7398 17.2298 11.5398 15.9498 12.2798C17.2298 12.8798 19.2798 14.4498 20.0598 17.2898H17.2198C16.6098 15.3898 15.0898 13.9198 13.0798 13.7198V17.2898H12.7698C7.29981 17.2898 4.1798 13.5398 4.0498 7.2998Z" fill="white"/>
</g>
<defs>
<clipPath id="clip0_6434_113689">
<rect width="24" height="24" fill="white"/>
</clipPath>
</defs>
</svg>
