<svg width="38" height="21" viewBox="0 0 38 21" fill="none" xmlns="http://www.w3.org/2000/svg">
<path d="M36.845 9.82164C37.1575 10.1342 37.333 10.558 37.333 11C37.333 11.4419 37.1575 11.8658 36.845 12.1783L28.5117 20.5116C28.1974 20.8152 27.7764 20.9832 27.3394 20.9794C26.9024 20.9756 26.4843 20.8003 26.1753 20.4913C25.8663 20.1823 25.691 19.7643 25.6872 19.3273C25.6834 18.8903 25.8514 18.4693 26.155 18.155L31.6434 12.6666L2.33337 12.6666C1.89134 12.6666 1.46741 12.491 1.15485 12.1785C0.842294 11.8659 0.666699 11.442 0.666699 11C0.666699 10.5579 0.842294 10.134 1.15485 9.82146C1.46741 9.5089 1.89134 9.3333 2.33337 9.3333L31.6434 9.3333L26.155 3.84497C25.9958 3.69123 25.8689 3.50732 25.7815 3.30398C25.6942 3.10064 25.6482 2.88194 25.6463 2.66064C25.6444 2.43934 25.6865 2.21988 25.7703 2.01505C25.8541 1.81022 25.9779 1.62413 26.1344 1.46765C26.2909 1.31116 26.4769 1.1874 26.6818 1.1036C26.8866 1.0198 27.1061 0.97763 27.3274 0.979552C27.5487 0.981475 27.7674 1.02745 27.9707 1.1148C28.174 1.20215 28.358 1.32912 28.5117 1.4883L36.845 9.82164Z" fill="white"/>
</svg>
